<?xml version="1.0" encoding="utf-8"?>
<!-- Generator: Adobe Illustrator 27.0.0, SVG Export Plug-In . SVG Version: 6.00 Build 0)  -->
<svg version="1.1" id="Layer_1" xmlns="http://www.w3.org/2000/svg" xmlns:xlink="http://www.w3.org/1999/xlink" x="0px" y="0px"
	 viewBox="0 0 154 153.2" style="enable-background:new 0 0 154 153.2;" xml:space="preserve">
<g>
	<path d="M154,23.8c-0.4,1.4-0.6,3-1.3,4.3c-1.2,2.2-2.5,4.5-4.2,6.3c-22.4,22.5-44.9,45-67.4,67.4c-0.8,0.8-1.9,1.5-3,1.8
		c-10.3,2.9-20.6,5.8-30.9,8.6c-3.9,1.1-6.4-1.3-5.3-5.2c2.8-10.3,5.7-20.6,8.6-30.9c0.3-1.1,0.9-2.2,1.8-3.1
		c22.5-22.5,44.9-45,67.5-67.5c7.3-7.3,17.8-7.2,25.1,0c1.3,1.3,2.6,2.6,3.8,3.8c2.7,2.7,4.5,5.9,5.1,9.8c0,0.2,0.2,0.3,0.2,0.5
		C154,21,154,22.4,154,23.8z M78,93.7c18.5-18.5,37.1-37.1,55.6-55.6c-5.9-5.9-11.9-11.9-17.7-17.7C97.4,38.9,78.8,57.4,60.3,75.9
		C66.2,81.8,72.1,87.8,78,93.7z M121.8,14.1c6.1,6.1,12.1,12.1,18.1,18.1c1.3-1.4,2.9-2.9,4.3-4.6c2.7-3.3,2.8-8.4,0.1-11.6
		c-1.9-2.3-4.1-4.4-6.4-6.3c-3.2-2.7-8.3-2.6-11.5,0.1C124.7,11.2,123.1,12.8,121.8,14.1z M50.9,103.2c6.7-1.9,13.2-3.7,19.5-5.4
		c-4.8-4.8-9.4-9.4-14.1-14.1C54.5,89.9,52.7,96.4,50.9,103.2z"/>
	<path d="M73,153.2c-17.7,0-35.4,0-53.1,0c-8.4,0-14.6-3.7-18.1-11.3c-1.1-2.4-1.7-5.2-1.7-7.8C0,100.7,0,67.4,0,34.1
		c0-10.4,8-18.7,18.4-19C30,14.8,41.5,15,53,15c2.3,0,4,1.7,4,3.8c0,2.1-1.8,3.8-4.2,3.8c-11,0-22.1,0-33.1,0
		c-5.9,0-10.3,3.2-11.8,8.8c-0.3,1.2-0.4,2.5-0.4,3.7c0,32.6,0,65.2,0,97.9c0,6.2,3,10.5,8.6,12.1c1.2,0.3,2.5,0.5,3.7,0.5
		c35.3,0,70.7,0,106,0c6,0,10.4-3.2,11.9-8.6c0.4-1.3,0.4-2.7,0.4-4c0-10.8,0-21.6,0-32.5c0-2.6,1.6-4.2,3.9-4.2
		c1.9,0,3.6,1.5,3.7,3.4c0.1,0.9,0,1.8,0,2.7c0,10.9,0.1,21.8-0.1,32.6c-0.2,9.7-8.3,17.9-18,18.1c-11.2,0.2-22.4,0.1-33.5,0.1
		C87.2,153.2,80.1,153.2,73,153.2z"/>
</g>
</svg>
