<svg width="40" height="39" viewBox="0 0 40 39" fill="none" xmlns="http://www.w3.org/2000/svg">
<path d="M12.6666 30.5L16.3333 26.8333H20L22.4933 24.34C25.0419 25.2279 27.8165 25.2244 30.3629 24.33C32.9093 23.4356 35.0766 21.7034 36.5102 19.4167C37.9439 17.1301 38.5588 14.4246 38.2545 11.7429C37.9501 9.06122 36.7445 6.56229 34.8349 4.65509C32.9253 2.74788 30.4249 1.54538 27.7428 1.24439C25.0608 0.943395 22.356 1.56174 20.0712 2.99823C17.7863 4.43471 16.0568 6.60424 15.1656 9.15174C14.2744 11.6992 14.2743 14.4738 15.1655 17.0213L1.66663 30.5L1.66663 37.8333H8.99996L12.6666 34.1667L12.6666 30.5Z" stroke="white" stroke-width="2" stroke-linecap="round" stroke-linejoin="round"/>
<path d="M29.1666 12.1667C30.1791 12.1667 30.9999 11.3459 30.9999 10.3333C30.9999 9.32081 30.1791 8.5 29.1666 8.5C28.1541 8.5 27.3333 9.32081 27.3333 10.3333C27.3333 11.3459 28.1541 12.1667 29.1666 12.1667Z" stroke="white" stroke-width="2" stroke-linecap="round" stroke-linejoin="round"/>
</svg>
