<svg width="50" height="39" viewBox="0 0 50 39" fill="none" xmlns="http://www.w3.org/2000/svg">
<path d="M1.75 9.14999L22.1325 22.7383C22.9815 23.3048 23.9793 23.6071 25 23.6071C26.0207 23.6071 27.0185 23.3048 27.8675 22.7383L48.25 9.14999H1.75ZM6.91667 37.5667H43.0833C44.4536 37.5667 45.7678 37.0223 46.7367 36.0534C47.7057 35.0844 48.25 33.7703 48.25 32.4V6.56666C48.25 5.19638 47.7057 3.88221 46.7367 2.91328C45.7678 1.94434 44.4536 1.39999 43.0833 1.39999L6.91667 1.39999C5.54638 1.39999 4.23222 1.94434 3.26328 2.91328C2.29434 3.88221 1.75 5.19638 1.75 6.56666L1.75 32.4C1.75 33.7703 2.29434 35.0844 3.26328 36.0534C4.23222 37.0223 5.54638 37.5667 6.91667 37.5667Z" stroke="white" stroke-width="2" stroke-linecap="round" stroke-linejoin="round"/>
</svg>
