<?xml version="1.0" encoding="utf-8"?>
<!-- Generator: Adobe Illustrator 27.0.0, SVG Export Plug-In . SVG Version: 6.00 Build 0)  -->
<svg version="1.1" id="Layer_1" xmlns="http://www.w3.org/2000/svg" xmlns:xlink="http://www.w3.org/1999/xlink" x="0px" y="0px"
	 viewBox="0 0 146.9 146.8" style="enable-background:new 0 0 146.9 146.8;" xml:space="preserve">
<g>
	<path d="M69.7,0c2.8,0,5.5,0,8.3,0c1.4,0.2,2.7,0.4,4.1,0.5c18.7,2.3,34.4,10.4,46.6,24.7c16,18.7,21.5,40.3,16.3,64.4
		c-3.5,16.2-11.9,29.6-24.6,40.3c-11.3,9.4-24.3,14.9-39,16.5c-14.5,1.6-28.3-1-41.3-7.7c-13.5-6.9-23.9-17.2-31.1-30.5
		c-4.7-8.6-7.5-17.7-8.4-27.5c-0.2-2.5-0.4-5-0.5-7.6c0-0.6,0-1.2,0-1.7c0.1-0.8,0.2-1.6,0.3-2.4c0.5-8.6,2.5-16.9,5.9-24.8
		C11,33,18.2,23.6,27.7,16.1c9-7.2,19.1-12,30.4-14.4C61.9,0.9,65.8,0.6,69.7,0z M119.6,121.5c19-17.8,26.7-47.5,15.4-74.2
		C124,21.1,96.6,3.4,65.6,6.9c-28,3.2-51.9,24.2-57.8,53.2C5.6,71.3,6.2,82.4,9.6,93.3c3.4,10.9,9.2,20.3,17.8,28.5
		c0.1-13.2,4.5-24.4,13.5-33.4s20.2-13.5,33-13.5C96.6,74.8,119.6,93.4,119.6,121.5z M73.4,140.2c14.3-0.1,27.2-4.2,38.8-12.5
		c0.4-0.3,0.9-1,0.8-1.5c-0.1-3.7,0.1-7.4-0.4-11c-1.7-12-7.8-21.4-18-27.9c-11.3-7.1-23.5-8.2-35.9-3.2
		c-12,4.8-19.7,13.7-23.4,26.1c-1.6,5.3-1.5,10.8-1.4,16.2c0,0.4,0.4,1,0.7,1.2C46.2,136,59.2,140.1,73.4,140.2z"/>
	<path d="M73.6,21.6c13.7,0,24.9,11.2,24.8,24.9c0,13.7-11.3,24.9-24.9,24.8c-13.7-0.1-24.8-11.2-24.8-24.8
		C48.7,32.8,59.9,21.6,73.6,21.6z M73.5,64.9c10.1,0,18.4-8.2,18.5-18.3c0.1-10.2-8.1-18.4-18.3-18.5C63.5,28,55.2,36.2,55.2,46.4
		C55.1,56.6,63.3,64.8,73.5,64.9z"/>
</g>
</svg>
