<?xml version="1.0" encoding="utf-8"?>
<!-- Generator: Adobe Illustrator 27.0.0, SVG Export Plug-In . SVG Version: 6.00 Build 0)  -->
<svg version="1.1" id="Layer_1" xmlns="http://www.w3.org/2000/svg" xmlns:xlink="http://www.w3.org/1999/xlink" x="0px" y="0px"
	 viewBox="0 0 128.9 136.7" style="enable-background:new 0 0 128.9 136.7;" xml:space="preserve">
<g>
	<path d="M94.5,128.8c-10.8,5.7-21.8,7.9-35,7.9C27.3,136.7,0,113.1,0,75.4C0,35,28.1,0,71.7,0c34.2,0,57.2,24,57.2,56.8
		c0,29.5-16.5,46.8-35,46.8c-7.9,0-15.1-5.3-14.5-17.3h-0.8c-6.9,11.6-15.9,17.3-27.7,17.3c-11.4,0-21.2-9.2-21.2-24.8
		c0-24.3,19.2-46.5,46.6-46.5c8.4,0,15.9,1.8,21,4.1l-6.7,35.5c-2.9,14.9-0.6,21.8,5.9,22c10,0.2,21.2-13.2,21.2-35.9
		C117.7,29.5,100.6,9,70.1,9c-32,0-58.9,25.3-58.9,65.2c0,32.8,21.4,53,50.5,53c11.2,0,21.6-2.4,29.7-6.9L94.5,128.8z M83.7,44
		c-2-0.6-5.3-1.4-9.8-1.4c-17.3,0-31.2,16.3-31.2,35.3c0,8.6,4.3,14.9,13,14.9c11.4,0,21.8-14.5,24-26.7L83.7,44z"/>
</g>
</svg>
