<svg xmlns="http://www.w3.org/2000/svg" width="1092" height="1023" viewBox="0 0 1092 1023" fill="none">
<g opacity="0.05" clip-path="url(#clip0_780_850)">
<path d="M673.411 0.00537109L597.546 0.00537109L560.238 64.6158L636.102 64.6158L673.411 0.00537109Z" stroke="white" stroke-width="0.496577" stroke-miterlimit="10"/>
<path d="M749.275 0.00488281L673.411 0.00488281L636.102 64.6153L711.967 64.6153L749.275 0.00488281Z" stroke="white" stroke-width="0.496577" stroke-miterlimit="10"/>
<path d="M825.145 0.00488281L749.28 0.00488281L711.972 64.6153L787.837 64.6153L825.145 0.00488281Z" stroke="white" stroke-width="0.496577" stroke-miterlimit="10"/>
<path d="M901.01 0.00488281L825.145 0.00488281L787.837 64.6153L863.701 64.6153L901.01 0.00488281Z" stroke="white" stroke-width="0.496577" stroke-miterlimit="10"/>
<path d="M976.874 0.00488281L901.01 0.00488281L863.701 64.6153L939.566 64.6153L976.874 0.00488281Z" stroke="white" stroke-width="0.496577" stroke-miterlimit="10"/>
<path d="M1052.74 0.00488281L976.879 0.00488281L939.571 64.6153L1015.44 64.6153L1052.74 0.00488281Z" stroke="white" stroke-width="0.496577" stroke-miterlimit="10"/>
<path d="M1128.61 0.00488281L1052.74 0.00488281L1015.44 64.6153L1091.3 64.6153L1128.61 0.00488281Z" stroke="white" stroke-width="0.496577" stroke-miterlimit="10"/>
<path d="M1204.47 0.00488281L1128.61 0.00488281L1091.3 64.6153L1167.17 64.6153L1204.47 0.00488281Z" stroke="white" stroke-width="0.496577" stroke-miterlimit="10"/>
<path d="M636.102 64.6152L560.238 64.6152L522.929 129.226H598.794L636.102 64.6152Z" stroke="white" stroke-width="0.496577" stroke-miterlimit="10"/>
<path d="M711.967 64.6152L636.103 64.6152L598.794 129.226H674.659L711.967 64.6152Z" stroke="white" stroke-width="0.496577" stroke-miterlimit="10"/>
<path d="M787.837 64.6152L711.972 64.6152L674.664 129.226H750.529L787.837 64.6152Z" stroke="white" stroke-width="0.496577" stroke-miterlimit="10"/>
<path d="M863.701 64.6152L787.836 64.6152L750.528 129.226H826.393L863.701 64.6152Z" stroke="white" stroke-width="0.496577" stroke-miterlimit="10"/>
<path d="M939.566 64.6152L863.701 64.6152L826.393 129.226H902.257L939.566 64.6152Z" stroke="white" stroke-width="0.496577" stroke-miterlimit="10"/>
<path d="M1015.44 64.6152L939.571 64.6152L902.262 129.226H978.127L1015.44 64.6152Z" stroke="white" stroke-width="0.496577" stroke-miterlimit="10"/>
<path d="M1091.3 64.6152L1015.44 64.6152L978.127 129.226H1053.99L1091.3 64.6152Z" stroke="white" stroke-width="0.496577" stroke-miterlimit="10"/>
<path d="M1167.16 64.6152L1091.3 64.6152L1053.99 129.226H1129.86L1167.16 64.6152Z" stroke="white" stroke-width="0.496577" stroke-miterlimit="10"/>
<path d="M598.794 129.226H522.929L485.621 193.836H561.486L598.794 129.226Z" stroke="white" stroke-width="0.496577" stroke-miterlimit="10"/>
<path d="M674.659 129.226H598.794L561.486 193.836H637.35L674.659 129.226Z" stroke="white" stroke-width="0.496577" stroke-miterlimit="10"/>
<path d="M750.528 129.226H674.664L637.355 193.836H713.22L750.528 129.226Z" stroke="white" stroke-width="0.496577" stroke-miterlimit="10"/>
<path d="M826.393 129.226H750.528L713.22 193.836H789.085L826.393 129.226Z" stroke="white" stroke-width="0.496577" stroke-miterlimit="10"/>
<path d="M902.258 129.226H826.393L789.085 193.836H864.949L902.258 129.226Z" stroke="white" stroke-width="0.496577" stroke-miterlimit="10"/>
<path d="M978.127 129.226H902.263L864.954 193.836H940.819L978.127 129.226Z" stroke="white" stroke-width="0.496577" stroke-miterlimit="10"/>
<path d="M1053.99 129.226H978.127L940.819 193.836H1016.68L1053.99 129.226Z" stroke="white" stroke-width="0.496577" stroke-miterlimit="10"/>
<path d="M1129.86 129.226H1053.99L1016.68 193.836H1092.55L1129.86 129.226Z" stroke="white" stroke-width="0.496577" stroke-miterlimit="10"/>
<path d="M561.483 193.841H485.619L448.31 258.451H524.175L561.483 193.841Z" stroke="white" stroke-width="0.496577" stroke-miterlimit="10"/>
<path d="M637.348 193.841H561.483L524.175 258.451H600.04L637.348 193.841Z" stroke="white" stroke-width="0.496577" stroke-miterlimit="10"/>
<path d="M713.218 193.841H637.353L600.045 258.451H675.909L713.218 193.841Z" stroke="white" stroke-width="0.496577" stroke-miterlimit="10"/>
<path d="M789.082 193.841H713.217L675.909 258.451H751.774L789.082 193.841Z" stroke="white" stroke-width="0.496577" stroke-miterlimit="10"/>
<path d="M864.947 193.841H789.082L751.774 258.451H827.638L864.947 193.841Z" stroke="white" stroke-width="0.496577" stroke-miterlimit="10"/>
<path d="M940.816 193.841H864.952L827.643 258.451H903.508L940.816 193.841Z" stroke="white" stroke-width="0.496577" stroke-miterlimit="10"/>
<path d="M1016.68 193.841H940.816L903.508 258.451H979.373L1016.68 193.841Z" stroke="white" stroke-width="0.496577" stroke-miterlimit="10"/>
<path d="M1092.55 193.841H1016.68L979.373 258.451H1055.24L1092.55 193.841Z" stroke="white" stroke-width="0.496577" stroke-miterlimit="10"/>
<path d="M1168.42 193.841H1092.55L1055.24 258.451H1131.11L1168.42 193.841Z" stroke="white" stroke-width="0.496577" stroke-miterlimit="10"/>
<path d="M524.175 258.451H448.31L411.002 323.062H486.866L524.175 258.451Z" stroke="white" stroke-width="0.496577" stroke-miterlimit="10"/>
<path d="M600.039 258.451H524.175L486.866 323.062H562.731L600.039 258.451Z" stroke="white" stroke-width="0.496577" stroke-miterlimit="10"/>
<path d="M675.909 258.451H600.044L562.736 323.062H638.601L675.909 258.451Z" stroke="white" stroke-width="0.496577" stroke-miterlimit="10"/>
<path d="M751.774 258.451H675.909L638.601 323.062H714.466L751.774 258.451Z" stroke="white" stroke-width="0.496577" stroke-miterlimit="10"/>
<path d="M827.639 258.451H751.774L714.466 323.062H790.33L827.639 258.451Z" stroke="white" stroke-width="0.496577" stroke-miterlimit="10"/>
<path d="M903.508 258.451H827.644L790.335 323.062H866.2L903.508 258.451Z" stroke="white" stroke-width="0.496577" stroke-miterlimit="10"/>
<path d="M979.373 258.451H903.508L866.2 323.062H942.065L979.373 258.451Z" stroke="white" stroke-width="0.496577" stroke-miterlimit="10"/>
<path d="M1055.24 258.451H979.373L942.065 323.062H1017.93L1055.24 258.451Z" stroke="white" stroke-width="0.496577" stroke-miterlimit="10"/>
<path d="M1131.11 258.451H1055.24L1017.93 323.062H1093.8L1131.11 258.451Z" stroke="white" stroke-width="0.496577" stroke-miterlimit="10"/>
<path d="M486.867 323.062H411.002L373.694 387.672H449.558L486.867 323.062Z" stroke="white" stroke-width="0.496577" stroke-miterlimit="10"/>
<path d="M562.731 323.062H486.867L449.558 387.672H525.423L562.731 323.062Z" stroke="white" stroke-width="0.496577" stroke-miterlimit="10"/>
<path d="M638.601 323.062H562.736L525.428 387.672H601.293L638.601 323.062Z" stroke="white" stroke-width="0.496577" stroke-miterlimit="10"/>
<path d="M714.466 323.062H638.601L601.293 387.672H677.157L714.466 323.062Z" stroke="white" stroke-width="0.496577" stroke-miterlimit="10"/>
<path d="M790.33 323.062H714.465L677.157 387.672H753.022L790.33 323.062Z" stroke="white" stroke-width="0.496577" stroke-miterlimit="10"/>
<path d="M866.2 323.062H790.335L753.027 387.672H828.891L866.2 323.062Z" stroke="white" stroke-width="0.496577" stroke-miterlimit="10"/>
<path d="M942.064 323.062H866.2L828.891 387.672H904.756L942.064 323.062Z" stroke="white" stroke-width="0.496577" stroke-miterlimit="10"/>
<path d="M1017.93 323.062H942.064L904.756 387.672H980.621L1017.93 323.062Z" stroke="white" stroke-width="0.496577" stroke-miterlimit="10"/>
<path d="M1093.8 323.062H1017.93L980.626 387.672H1056.49L1093.8 323.062Z" stroke="white" stroke-width="0.496577" stroke-miterlimit="10"/>
<path d="M1169.66 323.062H1093.8L1056.49 387.672H1132.36L1169.66 323.062Z" stroke="white" stroke-width="0.496577" stroke-miterlimit="10"/>
<path d="M449.558 387.672H373.693L336.385 452.283H412.25L449.558 387.672Z" stroke="white" stroke-width="0.496577" stroke-miterlimit="10"/>
<path d="M525.423 387.672H449.558L412.25 452.283H488.114L525.423 387.672Z" stroke="white" stroke-width="0.496577" stroke-miterlimit="10"/>
<path d="M601.292 387.672H525.428L488.119 452.283H563.984L601.292 387.672Z" stroke="white" stroke-width="0.496577" stroke-miterlimit="10"/>
<path d="M677.157 387.672H601.292L563.984 452.283H639.849L677.157 387.672Z" stroke="white" stroke-width="0.496577" stroke-miterlimit="10"/>
<path d="M753.022 387.672H677.157L639.849 452.283H715.714L753.022 387.672Z" stroke="white" stroke-width="0.496577" stroke-miterlimit="10"/>
<path d="M828.892 387.672H753.027L715.719 452.283H791.583L828.892 387.672Z" stroke="white" stroke-width="0.496577" stroke-miterlimit="10"/>
<path d="M904.756 387.672H828.892L791.583 452.283H867.448L904.756 387.672Z" stroke="white" stroke-width="0.496577" stroke-miterlimit="10"/>
<path d="M980.621 387.672H904.756L867.448 452.283H943.313L980.621 387.672Z" stroke="white" stroke-width="0.496577" stroke-miterlimit="10"/>
<path d="M1056.49 387.672H980.625L943.317 452.283H1019.18L1056.49 387.672Z" stroke="white" stroke-width="0.496577" stroke-miterlimit="10"/>
<path d="M1132.35 387.672H1056.49L1019.18 452.283H1095.05L1132.35 387.672Z" stroke="white" stroke-width="0.496577" stroke-miterlimit="10"/>
<path d="M412.25 452.282H336.385L299.077 516.893H374.942L412.25 452.282Z" stroke="white" stroke-width="0.496577" stroke-miterlimit="10"/>
<path d="M488.115 452.282H412.25L374.942 516.893H450.806L488.115 452.282Z" stroke="white" stroke-width="0.496577" stroke-miterlimit="10"/>
<path d="M563.984 452.282H488.12L450.811 516.893H526.676L563.984 452.282Z" stroke="white" stroke-width="0.496577" stroke-miterlimit="10"/>
<path d="M639.849 452.282H563.984L526.676 516.893H602.541L639.849 452.282Z" stroke="white" stroke-width="0.496577" stroke-miterlimit="10"/>
<path d="M715.713 452.282H639.849L602.54 516.893H678.405L715.713 452.282Z" stroke="white" stroke-width="0.496577" stroke-miterlimit="10"/>
<path d="M791.583 452.282H715.718L678.41 516.893H754.275L791.583 452.282Z" stroke="white" stroke-width="0.496577" stroke-miterlimit="10"/>
<path d="M867.448 452.282H791.583L754.275 516.893H830.139L867.448 452.282Z" stroke="white" stroke-width="0.496577" stroke-miterlimit="10"/>
<path d="M943.312 452.282H867.448L830.139 516.893H906.004L943.312 452.282Z" stroke="white" stroke-width="0.496577" stroke-miterlimit="10"/>
<path d="M1019.18 452.282H943.317L906.009 516.893H981.874L1019.18 452.282Z" stroke="white" stroke-width="0.496577" stroke-miterlimit="10"/>
<path d="M1095.05 452.282H1019.18L981.874 516.893H1057.74L1095.05 452.282Z" stroke="white" stroke-width="0.496577" stroke-miterlimit="10"/>
<path d="M1170.91 452.282H1095.05L1057.74 516.893H1133.6L1170.91 452.282Z" stroke="white" stroke-width="0.496577" stroke-miterlimit="10"/>
<path d="M374.941 516.893H299.077L261.768 581.503H337.633L374.941 516.893Z" stroke="white" stroke-width="0.496577" stroke-miterlimit="10"/>
<path d="M450.806 516.893H374.941L337.633 581.503H413.498L450.806 516.893Z" stroke="white" stroke-width="0.496577" stroke-miterlimit="10"/>
<path d="M526.676 516.893H450.811L413.503 581.503H489.367L526.676 516.893Z" stroke="white" stroke-width="0.496577" stroke-miterlimit="10"/>
<path d="M602.54 516.893H526.676L489.367 581.503H565.232L602.54 516.893Z" stroke="white" stroke-width="0.496577" stroke-miterlimit="10"/>
<path d="M678.405 516.893H602.541L565.232 581.503H641.097L678.405 516.893Z" stroke="white" stroke-width="0.496577" stroke-miterlimit="10"/>
<path d="M754.275 516.893H678.41L641.102 581.503H716.967L754.275 516.893Z" stroke="white" stroke-width="0.496577" stroke-miterlimit="10"/>
<path d="M830.14 516.893H754.275L716.967 581.503H792.831L830.14 516.893Z" stroke="white" stroke-width="0.496577" stroke-miterlimit="10"/>
<path d="M906.004 516.893H830.14L792.831 581.503H868.696L906.004 516.893Z" stroke="white" stroke-width="0.496577" stroke-miterlimit="10"/>
<path d="M981.874 516.893H906.009L868.701 581.503H944.566L981.874 516.893Z" stroke="white" stroke-width="0.496577" stroke-miterlimit="10"/>
<path d="M1057.74 516.893H981.874L944.566 581.503H1020.43L1057.74 516.893Z" stroke="white" stroke-width="0.496577" stroke-miterlimit="10"/>
<path d="M1133.6 516.893H1057.74L1020.43 581.503H1096.29L1133.6 516.893Z" stroke="white" stroke-width="0.496577" stroke-miterlimit="10"/>
<path d="M337.631 581.508H261.766L224.458 646.118H300.322L337.631 581.508Z" stroke="white" stroke-width="0.496577" stroke-miterlimit="10"/>
<path d="M413.496 581.508H337.631L300.323 646.118H376.187L413.496 581.508Z" stroke="white" stroke-width="0.496577" stroke-miterlimit="10"/>
<path d="M489.365 581.508H413.5L376.192 646.118H452.057L489.365 581.508Z" stroke="white" stroke-width="0.496577" stroke-miterlimit="10"/>
<path d="M565.229 581.508H489.365L452.056 646.118H527.921L565.229 581.508Z" stroke="white" stroke-width="0.496577" stroke-miterlimit="10"/>
<path d="M641.094 581.508H565.229L527.921 646.118H603.786L641.094 581.508Z" stroke="white" stroke-width="0.496577" stroke-miterlimit="10"/>
<path d="M716.964 581.508H641.099L603.791 646.118H679.655L716.964 581.508Z" stroke="white" stroke-width="0.496577" stroke-miterlimit="10"/>
<path d="M792.829 581.508H716.964L679.656 646.118H755.52L792.829 581.508Z" stroke="white" stroke-width="0.496577" stroke-miterlimit="10"/>
<path d="M868.693 581.508H792.829L755.52 646.118H831.385L868.693 581.508Z" stroke="white" stroke-width="0.496577" stroke-miterlimit="10"/>
<path d="M944.563 581.508H868.698L831.39 646.118H907.255L944.563 581.508Z" stroke="white" stroke-width="0.496577" stroke-miterlimit="10"/>
<path d="M1020.43 581.508H944.563L907.255 646.118H983.119L1020.43 581.508Z" stroke="white" stroke-width="0.496577" stroke-miterlimit="10"/>
<path d="M1096.29 581.508H1020.43L983.119 646.118H1058.98L1096.29 581.508Z" stroke="white" stroke-width="0.496577" stroke-miterlimit="10"/>
<path d="M1172.16 581.508H1096.3L1058.99 646.118H1134.85L1172.16 581.508Z" stroke="white" stroke-width="0.496577" stroke-miterlimit="10"/>
<path d="M300.322 646.118H224.458L187.149 710.729H263.014L300.322 646.118Z" stroke="white" stroke-width="0.496577" stroke-miterlimit="10"/>
<path d="M376.187 646.118H300.322L263.014 710.729H338.879L376.187 646.118Z" stroke="white" stroke-width="0.496577" stroke-miterlimit="10"/>
<path d="M452.057 646.118H376.192L338.884 710.729H414.748L452.057 646.118Z" stroke="white" stroke-width="0.496577" stroke-miterlimit="10"/>
<path d="M527.921 646.118H452.057L414.748 710.729H490.613L527.921 646.118Z" stroke="white" stroke-width="0.496577" stroke-miterlimit="10"/>
<path d="M603.786 646.118H527.921L490.613 710.729H566.478L603.786 646.118Z" stroke="white" stroke-width="0.496577" stroke-miterlimit="10"/>
<path d="M679.656 646.118H603.791L566.483 710.729H642.347L679.656 646.118Z" stroke="white" stroke-width="0.496577" stroke-miterlimit="10"/>
<path d="M755.52 646.118H679.656L642.347 710.729H718.212L755.52 646.118Z" stroke="white" stroke-width="0.496577" stroke-miterlimit="10"/>
<path d="M831.385 646.118H755.521L718.212 710.729H794.077L831.385 646.118Z" stroke="white" stroke-width="0.496577" stroke-miterlimit="10"/>
<path d="M907.255 646.118H831.39L794.082 710.729H869.946L907.255 646.118Z" stroke="white" stroke-width="0.496577" stroke-miterlimit="10"/>
<path d="M983.119 646.118H907.254L869.946 710.729H945.811L983.119 646.118Z" stroke="white" stroke-width="0.496577" stroke-miterlimit="10"/>
<path d="M1058.98 646.118H983.119L945.811 710.729H1021.68L1058.98 646.118Z" stroke="white" stroke-width="0.496577" stroke-miterlimit="10"/>
<path d="M1134.85 646.118H1058.99L1021.68 710.729H1097.55L1134.85 646.118Z" stroke="white" stroke-width="0.496577" stroke-miterlimit="10"/>
<path d="M263.014 710.729H187.149L149.841 775.339H225.706L263.014 710.729Z" stroke="white" stroke-width="0.496577" stroke-miterlimit="10"/>
<path d="M338.879 710.729H263.014L225.706 775.339H301.57L338.879 710.729Z" stroke="white" stroke-width="0.496577" stroke-miterlimit="10"/>
<path d="M414.748 710.729H338.884L301.575 775.339H377.44L414.748 710.729Z" stroke="white" stroke-width="0.496577" stroke-miterlimit="10"/>
<path d="M490.613 710.729H414.749L377.44 775.339H453.305L490.613 710.729Z" stroke="white" stroke-width="0.496577" stroke-miterlimit="10"/>
<path d="M566.477 710.729H490.613L453.304 775.339H529.169L566.477 710.729Z" stroke="white" stroke-width="0.496577" stroke-miterlimit="10"/>
<path d="M642.347 710.729H566.482L529.174 775.339H605.039L642.347 710.729Z" stroke="white" stroke-width="0.496577" stroke-miterlimit="10"/>
<path d="M718.212 710.729H642.347L605.039 775.339H680.904L718.212 710.729Z" stroke="white" stroke-width="0.496577" stroke-miterlimit="10"/>
<path d="M794.077 710.729H718.212L680.904 775.339H756.768L794.077 710.729Z" stroke="white" stroke-width="0.496577" stroke-miterlimit="10"/>
<path d="M869.946 710.729H794.082L756.773 775.339H832.638L869.946 710.729Z" stroke="white" stroke-width="0.496577" stroke-miterlimit="10"/>
<path d="M945.811 710.729H869.946L832.638 775.339H908.503L945.811 710.729Z" stroke="white" stroke-width="0.496577" stroke-miterlimit="10"/>
<path d="M1021.68 710.729H945.811L908.503 775.339H984.367L1021.68 710.729Z" stroke="white" stroke-width="0.496577" stroke-miterlimit="10"/>
<path d="M1097.55 710.729H1021.68L984.372 775.339H1060.24L1097.55 710.729Z" stroke="white" stroke-width="0.496577" stroke-miterlimit="10"/>
<path d="M1173.41 710.729H1097.55L1060.24 775.339H1136.1L1173.41 710.729Z" stroke="white" stroke-width="0.496577" stroke-miterlimit="10"/>
<path d="M225.705 775.339H149.841L112.532 839.949H188.397L225.705 775.339Z" stroke="white" stroke-width="0.496577" stroke-miterlimit="10"/>
<path d="M301.57 775.339H225.706L188.397 839.949H264.262L301.57 775.339Z" stroke="white" stroke-width="0.496577" stroke-miterlimit="10"/>
<path d="M377.44 775.339H301.575L264.267 839.949H340.132L377.44 775.339Z" stroke="white" stroke-width="0.496577" stroke-miterlimit="10"/>
<path d="M453.305 775.339H377.44L340.132 839.949H415.996L453.305 775.339Z" stroke="white" stroke-width="0.496577" stroke-miterlimit="10"/>
<path d="M529.169 775.339H453.305L415.996 839.949H491.861L529.169 775.339Z" stroke="white" stroke-width="0.496577" stroke-miterlimit="10"/>
<path d="M605.039 775.339H529.174L491.866 839.949H567.731L605.039 775.339Z" stroke="white" stroke-width="0.496577" stroke-miterlimit="10"/>
<path d="M680.904 775.339H605.039L567.731 839.949H643.595L680.904 775.339Z" stroke="white" stroke-width="0.496577" stroke-miterlimit="10"/>
<path d="M756.768 775.339H680.904L643.595 839.949H719.46L756.768 775.339Z" stroke="white" stroke-width="0.496577" stroke-miterlimit="10"/>
<path d="M832.638 775.339H756.773L719.465 839.949H795.33L832.638 775.339Z" stroke="white" stroke-width="0.496577" stroke-miterlimit="10"/>
<path d="M908.503 775.339H832.638L795.33 839.949H871.195L908.503 775.339Z" stroke="white" stroke-width="0.496577" stroke-miterlimit="10"/>
<path d="M984.367 775.339H908.502L871.194 839.949H947.059L984.367 775.339Z" stroke="white" stroke-width="0.496577" stroke-miterlimit="10"/>
<path d="M1060.24 775.339H984.372L947.064 839.949H1022.93L1060.24 775.339Z" stroke="white" stroke-width="0.496577" stroke-miterlimit="10"/>
<path d="M1136.1 775.339H1060.24L1022.93 839.949H1098.79L1136.1 775.339Z" stroke="white" stroke-width="0.496577" stroke-miterlimit="10"/>
<path d="M188.397 839.949H112.533L75.2244 904.56H151.089L188.397 839.949Z" stroke="white" stroke-width="0.496577" stroke-miterlimit="10"/>
<path d="M264.262 839.949H188.397L151.089 904.56H226.954L264.262 839.949Z" stroke="white" stroke-width="0.496577" stroke-miterlimit="10"/>
<path d="M340.132 839.949H264.267L226.959 904.56H302.823L340.132 839.949Z" stroke="white" stroke-width="0.496577" stroke-miterlimit="10"/>
<path d="M415.997 839.949H340.132L302.824 904.56H378.688L415.997 839.949Z" stroke="white" stroke-width="0.496577" stroke-miterlimit="10"/>
<path d="M491.861 839.949H415.996L378.688 904.56H454.552L491.861 839.949Z" stroke="white" stroke-width="0.496577" stroke-miterlimit="10"/>
<path d="M567.73 839.949H491.866L454.557 904.56H530.422L567.73 839.949Z" stroke="white" stroke-width="0.496577" stroke-miterlimit="10"/>
<path d="M643.595 839.949H567.73L530.422 904.56H606.287L643.595 839.949Z" stroke="white" stroke-width="0.496577" stroke-miterlimit="10"/>
<path d="M719.46 839.949H643.595L606.287 904.56H682.152L719.46 839.949Z" stroke="white" stroke-width="0.496577" stroke-miterlimit="10"/>
<path d="M795.33 839.949H719.465L682.157 904.56H758.021L795.33 839.949Z" stroke="white" stroke-width="0.496577" stroke-miterlimit="10"/>
<path d="M871.194 839.949H795.33L758.021 904.56H833.886L871.194 839.949Z" stroke="white" stroke-width="0.496577" stroke-miterlimit="10"/>
<path d="M947.059 839.949H871.194L833.886 904.56H909.751L947.059 839.949Z" stroke="white" stroke-width="0.496577" stroke-miterlimit="10"/>
<path d="M1022.93 839.949H947.064L909.756 904.56H985.62L1022.93 839.949Z" stroke="white" stroke-width="0.496577" stroke-miterlimit="10"/>
<path d="M1098.79 839.949H1022.93L985.62 904.56H1061.49L1098.79 839.949Z" stroke="white" stroke-width="0.496577" stroke-miterlimit="10"/>
<path d="M1174.66 839.949H1098.79L1061.49 904.56H1137.35L1174.66 839.949Z" stroke="white" stroke-width="0.496577" stroke-miterlimit="10"/>
<path d="M151.089 904.56H75.2246L37.9163 969.17H113.781L151.089 904.56Z" stroke="white" stroke-width="0.496577" stroke-miterlimit="10"/>
<path d="M226.954 904.56H151.089L113.781 969.17H189.645L226.954 904.56Z" stroke="white" stroke-width="0.496577" stroke-miterlimit="10"/>
<path d="M302.823 904.56H226.958L189.65 969.17H265.515L302.823 904.56Z" stroke="white" stroke-width="0.496577" stroke-miterlimit="10"/>
<path d="M378.688 904.56H302.823L265.515 969.17H341.38L378.688 904.56Z" stroke="white" stroke-width="0.496577" stroke-miterlimit="10"/>
<path d="M454.553 904.56H378.688L341.38 969.17H417.244L454.553 904.56Z" stroke="white" stroke-width="0.496577" stroke-miterlimit="10"/>
<path d="M530.422 904.56H454.558L417.249 969.17H493.114L530.422 904.56Z" stroke="white" stroke-width="0.496577" stroke-miterlimit="10"/>
<path d="M606.287 904.56H530.422L493.114 969.17H568.979L606.287 904.56Z" stroke="white" stroke-width="0.496577" stroke-miterlimit="10"/>
<path d="M682.152 904.56H606.287L568.979 969.17H644.843L682.152 904.56Z" stroke="white" stroke-width="0.496577" stroke-miterlimit="10"/>
<path d="M758.021 904.56H682.157L644.848 969.17H720.713L758.021 904.56Z" stroke="white" stroke-width="0.496577" stroke-miterlimit="10"/>
<path d="M833.886 904.56H758.021L720.713 969.17H796.578L833.886 904.56Z" stroke="white" stroke-width="0.496577" stroke-miterlimit="10"/>
<path d="M909.75 904.56H833.886L796.577 969.17H872.442L909.75 904.56Z" stroke="white" stroke-width="0.496577" stroke-miterlimit="10"/>
<path d="M985.62 904.56H909.755L872.447 969.17H948.312L985.62 904.56Z" stroke="white" stroke-width="0.496577" stroke-miterlimit="10"/>
<path d="M1061.48 904.56H985.62L948.312 969.17H1024.18L1061.48 904.56Z" stroke="white" stroke-width="0.496577" stroke-miterlimit="10"/>
<path d="M1137.35 904.56H1061.48L1024.18 969.17H1100.04L1137.35 904.56Z" stroke="white" stroke-width="0.496577" stroke-miterlimit="10"/>
<path d="M113.778 969.175H37.9136L0.605235 1033.79H76.4699L113.778 969.175Z" stroke="white" stroke-width="0.496577" stroke-miterlimit="10"/>
<path d="M189.643 969.174H113.778L76.47 1033.78H152.335L189.643 969.174Z" stroke="white" stroke-width="0.496577" stroke-miterlimit="10"/>
<path d="M265.513 969.174H189.648L152.34 1033.78H228.204L265.513 969.174Z" stroke="white" stroke-width="0.496577" stroke-miterlimit="10"/>
<path d="M341.377 969.175H265.512L228.204 1033.79H304.069L341.377 969.175Z" stroke="white" stroke-width="0.496577" stroke-miterlimit="10"/>
<path d="M417.242 969.175H341.377L304.069 1033.79H379.933L417.242 969.175Z" stroke="white" stroke-width="0.496577" stroke-miterlimit="10"/>
<path d="M493.111 969.175H417.247L379.938 1033.79H455.803L493.111 969.175Z" stroke="white" stroke-width="0.496577" stroke-miterlimit="10"/>
<path d="M568.976 969.175H493.111L455.803 1033.79H531.668L568.976 969.175Z" stroke="white" stroke-width="0.496577" stroke-miterlimit="10"/>
<path d="M644.841 969.174H568.976L531.668 1033.78H607.532L644.841 969.174Z" stroke="white" stroke-width="0.496577" stroke-miterlimit="10"/>
<path d="M720.71 969.174H644.846L607.537 1033.78H683.402L720.71 969.174Z" stroke="white" stroke-width="0.496577" stroke-miterlimit="10"/>
<path d="M796.575 969.175H720.71L683.402 1033.79H759.267L796.575 969.175Z" stroke="white" stroke-width="0.496577" stroke-miterlimit="10"/>
<path d="M872.44 969.174H796.575L759.267 1033.78H835.131L872.44 969.174Z" stroke="white" stroke-width="0.496577" stroke-miterlimit="10"/>
<path d="M948.31 969.174H872.445L835.136 1033.78H911.001L948.31 969.174Z" stroke="white" stroke-width="0.496577" stroke-miterlimit="10"/>
<path d="M1024.17 969.175H948.31L911.001 1033.79H986.866L1024.17 969.175Z" stroke="white" stroke-width="0.496577" stroke-miterlimit="10"/>
<path d="M1100.04 969.174H1024.17L986.866 1033.78H1062.73L1100.04 969.174Z" stroke="white" stroke-width="0.496577" stroke-miterlimit="10"/>
<path d="M1175.91 969.174H1100.04L1062.74 1033.78H1138.6L1175.91 969.174Z" stroke="white" stroke-width="0.496577" stroke-miterlimit="10"/>
</g>
<path opacity="0.04" d="M1026.12 284.076C1004.84 272.589 980.144 266.895 953.149 266.895C913.458 266.895 882.785 279.998 858.955 301.789C835.124 279.998 804.451 266.895 764.78 266.895C737.805 266.895 713.085 272.589 691.806 284.076C565.93 310.183 489 402.02 489 531.647C489 722.217 641.356 756.678 650.236 759.042C748.919 785.287 765.532 737.763 768.261 732.64C777.496 737.507 818.868 759.121 858.955 759.633C899.041 759.121 940.413 737.507 949.648 732.64C952.378 737.763 968.99 785.287 1067.67 759.042C1076.55 756.678 1228.91 722.217 1228.91 531.647C1228.91 402 1151.98 310.183 1026.1 284.076H1026.12ZM707.014 744.501C591.303 740.383 512.633 654.517 512.633 531.647C512.633 430.589 562.568 356.013 649.128 321.177C625.931 352.21 612.463 396.759 612.463 455.179C612.463 568.295 665.365 668.033 748.484 721.212C748.484 740.305 718.286 744.915 707.033 744.501H707.014ZM756.79 700.563C684.172 650.773 636.076 562.601 636.076 455.14C636.076 294.44 741.978 290.401 764.8 290.401C795.849 290.401 821.736 299.543 843.114 318.774C792.447 381.528 779.929 489.601 773.64 576.374C770.495 625.139 756.79 700.563 756.79 700.563ZM858.955 740.541C844.142 740.541 810.028 731.556 776.685 712.957C787.661 680.801 792.724 634.715 796.086 577.576C804.412 459.455 824.326 380.74 858.935 336.073C893.543 380.74 913.458 459.455 921.784 577.576C925.146 634.715 930.208 680.801 941.184 712.957C907.841 731.537 873.727 740.541 858.915 740.541H858.955ZM944.289 576.393C937.981 489.62 925.462 381.548 874.815 318.793C896.193 299.563 922.08 290.421 953.129 290.421C975.951 290.421 1081.85 294.46 1081.85 455.159C1081.85 562.621 1033.76 650.793 961.139 700.583C961.139 700.583 947.453 625.159 944.289 576.393ZM1010.92 744.501C991.91 745.171 969.464 736.916 969.464 721.212C1052.58 668.033 1105.49 568.315 1105.49 455.179C1105.49 396.759 1092 352.21 1068.82 321.177C1155.38 356.013 1205.32 430.609 1205.32 531.647C1205.32 654.497 1126.63 740.364 1010.94 744.501H1010.92Z" fill="url(#paint0_linear_780_850)"/>
<defs>
<linearGradient id="paint0_linear_780_850" x1="1229" y1="516.895" x2="489" y2="516.895" gradientUnits="userSpaceOnUse">
<stop stop-color="#2371FF"/>
<stop offset="0.583333" stop-color="#A6F750"/>
<stop offset="1" stop-color="#A6F750" stop-opacity="0.22"/>
</linearGradient>
<clipPath id="clip0_780_850">
<rect width="1593.69" height="1194.25" fill="white" transform="matrix(1 0 -0.500055 0.865994 597.422 -0.209961)"/>
</clipPath>
</defs>
</svg>