<?xml version="1.0" encoding="utf-8"?>
<!-- Generator: Adobe Illustrator 27.0.0, SVG Export Plug-In . SVG Version: 6.00 Build 0)  -->
<svg version="1.1" id="Layer_1" xmlns="http://www.w3.org/2000/svg" xmlns:xlink="http://www.w3.org/1999/xlink" x="0px" y="0px"
	 viewBox="0 0 118.5 160.5" style="enable-background:new 0 0 118.5 160.5;" xml:space="preserve">
<g>
	<path d="M75.9,0c2.5,0.6,5,1.3,7.1,3C86.1,5.6,87.8,9,88,13c0.1,1.6,0,3.2,0,5c0.7,0,1.2,0.1,1.8,0.1c4.9,0,9.8,0,14.7,0
		c6.8,0.1,11.8,4,13.6,10.5c0.4,1.3,0.4,2.8,0.5,4.2c0.1,5.7,0,11.4,0,17c0,3.4-1.2,4.6-4.6,4.6c-1.7,0-3.3,0-5.2,0
		c0,0.8,0,1.4,0,2.1c0,28.2,0,56.4,0,84.6c0,5.5-1.5,10.4-5.4,14.3c-2.4,2.3-5.2,3.8-8.4,4.4c-0.3,0.1-0.6,0.2-0.8,0.3
		c-23.1,0-46.2,0-69.3,0c-2.7-0.7-5.4-1.5-7.7-3.2c-4.7-3.5-6.9-8.3-7.2-14.1c-0.1-0.8,0-1.7,0-2.5c0-27.9,0-55.8,0-83.7
		c0-0.7,0-1.3,0-2.2c-2,0-3.9,0-5.7,0c-2.7,0-4-1.3-4-4C0,44.3,0,38.2,0,32.1c0.1-8.1,5.9-13.9,14-14c5.3-0.1,10.7,0,16.1,0
		c0.1-2.1,0.1-4.1,0.4-6.1c0.7-6,5.2-10.7,11.2-11.8c0.2,0,0.5-0.2,0.7-0.2C53.6,0,64.7,0,75.9,0z M16.6,54.5c0,0.5,0,0.9,0,1.3
		c0,28.5,0,57,0,85.5c0,1,0.1,2,0.2,2.9c0.9,5.4,4.9,9,10.4,9c21.3,0,42.6,0,63.9,0c1.6,0,3.5-0.4,4.9-1.2c4.4-2.3,5.7-6.3,5.7-11
		c0-28.3,0-56.6,0-84.8c0-0.6-0.1-1.1-0.1-1.6C73.3,54.5,45,54.5,16.6,54.5z M6.9,47.4c35,0,69.8,0,104.6,0c0-5.6,0.1-11.1-0.1-16.6
		c-0.1-1.4-1.2-2.9-2.2-4.1c-1.3-1.6-3.3-1.7-5.3-1.7c-29.8,0-59.6,0-89.4,0c-0.5,0-1,0-1.6,0c-3,0.2-5.9,2.7-6,5.7
		C6.8,36.2,6.9,41.8,6.9,47.4z M37.2,18c14.7,0,29.3,0,44,0c0-1.6,0.1-3.1,0-4.6c-0.2-3.7-2.9-6.5-6.6-6.5C64.4,6.8,54.2,6.8,44,6.9
		c-3.7,0-6.5,2.7-6.8,6.4C37.1,14.8,37.2,16.3,37.2,18z"/>
	<path d="M76.2,101c0-10.8,0-21.7,0-32.5c0-0.5,0-1,0-1.6c0.1-1.9,1.4-3.3,3.2-3.4c1.7-0.1,3.2,1.2,3.5,3.1c0.1,0.6,0.1,1.1,0.1,1.7
		c0,21.8,0,43.7,0,65.5c0,0.6,0,1.2-0.1,1.9c-0.4,1.8-1.8,3-3.5,2.9c-1.7-0.1-3-1.4-3.2-3.3c0-0.5,0-1,0-1.6
		C76.2,122.8,76.2,111.9,76.2,101z"/>
	<path d="M35.5,100.9c0-11,0-22.1,0-33.1c0-2.4,0.8-3.6,2.5-4.2c1.8-0.5,3.8,0.6,4.2,2.5c0.1,0.7,0.2,1.4,0.2,2.2
		c0,21.8,0,43.5,0,65.3c0,0.6,0,1.2-0.1,1.9c-0.3,1.8-1.7,3-3.4,3c-1.7-0.1-3.1-1.3-3.2-3.2c-0.1-0.6-0.1-1.2-0.1-1.9
		C35.5,122.6,35.5,111.8,35.5,100.9z"/>
</g>
</svg>
