<?xml version="1.0" encoding="utf-8"?>
<!-- Generator: Adobe Illustrator 27.0.0, SVG Export Plug-In . SVG Version: 6.00 Build 0)  -->
<svg version="1.1" id="Layer_1" xmlns="http://www.w3.org/2000/svg" xmlns:xlink="http://www.w3.org/1999/xlink" x="0px" y="0px"
	 viewBox="0 0 129.4 28.8" style="enable-background:new 0 0 129.4 28.8;" xml:space="preserve">
<style type="text/css">
	.st0{fill:#A6F750;}
	.st1{fill:#181C23;}
</style>
<path class="st0" d="M120.6,0H8.8C3.9,0,0,3.9,0,8.8v3.5c0,4.9,3.9,8.8,8.8,8.8h101.5l9,7.7v-7.7h1.3c4.9,0,8.8-3.9,8.8-8.8V8.8
	C129.4,3.9,125.5,0,120.6,0z"/>
<g>
	<path class="st1" d="M13.8,15.1c-0.8,0-1.5-0.2-2.1-0.6c-0.6-0.4-1.1-0.9-1.4-1.6s-0.5-1.5-0.5-2.4c0-0.9,0.2-1.7,0.5-2.3
		c0.3-0.7,0.8-1.2,1.4-1.5c0.6-0.4,1.3-0.5,2.2-0.5c0.7,0,1.3,0.1,1.8,0.4s1,0.6,1.3,1.1s0.5,1,0.6,1.6h-2.1c0-0.3-0.1-0.5-0.3-0.8
		s-0.3-0.4-0.5-0.5C14.3,8,14,7.9,13.7,7.9c-0.3,0-0.7,0.1-0.9,0.3c-0.3,0.2-0.5,0.5-0.6,0.9C12.1,9.4,12,10,12,10.6
		c0,1,0.2,1.8,0.5,2.2s0.7,0.7,1.3,0.7c0.3,0,0.6-0.1,0.8-0.2c0.2-0.1,0.4-0.3,0.5-0.6c0.1-0.2,0.2-0.5,0.3-0.8h2.1
		c-0.1,0.4-0.2,0.8-0.3,1.2s-0.4,0.7-0.6,1c-0.3,0.3-0.6,0.5-1.1,0.7C15,15.1,14.4,15.1,13.8,15.1z"/>
	<path class="st1" d="M24,15.1c-0.8,0-1.6-0.2-2.2-0.5s-1.1-0.9-1.4-1.5s-0.5-1.5-0.5-2.4c0-0.9,0.2-1.7,0.5-2.4s0.8-1.2,1.4-1.5
		c0.6-0.4,1.3-0.5,2.2-0.5c0.8,0,1.5,0.2,2.2,0.5c0.6,0.4,1.1,0.9,1.4,1.5c0.3,0.7,0.5,1.5,0.5,2.4c0,0.9-0.2,1.7-0.5,2.4
		s-0.8,1.2-1.4,1.5C25.6,15,24.8,15.1,24,15.1z M24,13.5c0.4,0,0.7-0.1,1-0.3s0.5-0.5,0.7-0.9s0.2-0.9,0.2-1.6
		c0-0.7-0.1-1.2-0.2-1.7c-0.2-0.4-0.4-0.7-0.7-0.9s-0.6-0.3-1-0.3S23.3,8,23,8.2c-0.3,0.2-0.5,0.5-0.7,0.9s-0.2,1-0.2,1.7
		c0,0.7,0.1,1.2,0.2,1.6c0.2,0.4,0.4,0.7,0.7,0.9C23.3,13.4,23.6,13.5,24,13.5z"/>
	<path class="st1" d="M30.9,15V6.3h2l3.7,5.3V6.3h2V15h-1.8l-3.9-5.6V15H30.9z"/>
	<path class="st1" d="M41.8,15V6.3h2l3.7,5.3V6.3h2V15h-1.8l-3.9-5.6V15H41.8z"/>
	<path class="st1" d="M52.7,15V6.3h6.2l0,1.7h-4.1v1.8h3.5v1.7h-3.5v1.8l4.2,0V15H52.7z"/>
	<path class="st1" d="M65.5,15.1c-0.8,0-1.5-0.2-2.1-0.6c-0.6-0.4-1.1-0.9-1.4-1.6s-0.5-1.5-0.5-2.4c0-0.9,0.2-1.7,0.5-2.3
		c0.3-0.7,0.8-1.2,1.4-1.5c0.6-0.4,1.3-0.5,2.2-0.5c0.7,0,1.3,0.1,1.8,0.4c0.5,0.3,1,0.6,1.3,1.1c0.3,0.5,0.5,1,0.6,1.6H67
		c0-0.3-0.1-0.5-0.3-0.8s-0.3-0.4-0.5-0.5C66,8,65.7,7.9,65.4,7.9c-0.3,0-0.7,0.1-0.9,0.3C64.2,8.3,64,8.6,63.9,9
		c-0.1,0.4-0.2,0.9-0.2,1.6c0,1,0.2,1.8,0.5,2.2s0.7,0.7,1.3,0.7c0.3,0,0.6-0.1,0.8-0.2c0.2-0.1,0.4-0.3,0.5-0.6
		c0.1-0.2,0.2-0.5,0.3-0.8h2.1c-0.1,0.4-0.2,0.8-0.3,1.2c-0.2,0.4-0.4,0.7-0.6,1c-0.3,0.3-0.6,0.5-1.1,0.7
		C66.7,15.1,66.1,15.1,65.5,15.1z"/>
	<path class="st1" d="M73.7,15V8.2h-2.5V6.3h7.1v1.8h-2.5V15H73.7z"/>
</g>
<g>
	<g>
		<path class="st1" d="M92.2,14.1v1.1h-2.1c-0.1,0-0.2,0-0.2,0c-1.8,0-2.8-0.9-2.8-2.3c0-1.8,1.8-2.5,4.3-2.7c1.3-0.1,2-0.3,2-0.8
			c0-1-1-1.8-2.3-1.8c0,0-1.2,0-1.2,0V6.5h1.3c1.7,0,3,0.8,3.4,2.2c0.1,0.4,0.2,0.7,0.2,1.1v4h1.2V15l-2.3,0v-0.9L92.2,14.1v-1.3
			h1.2v-2c-0.2,0.2-1,0.4-2,0.5c-2.2,0.2-3,0.6-3,1.6c0,0.8,0.6,1.3,1.7,1.3L92.2,14.1L92.2,14.1L92.2,14.1z"/>
		<path class="st1" d="M89.9,7.6h-1.1v1.1h1.1V7.6z"/>
		<path class="st1" d="M88.8,8.7h-1.1v1.1h1.1V8.7z"/>
		<path class="st1" d="M105,3.2V15h-1.2v-1.6c-0.7,1.1-1.8,1.8-3.2,1.8c-2.4,0-4.2-1.9-4.2-4.3c0-2.5,1.8-4.3,4.2-4.3
			c0.1,0,2.6,0,2.6,0v1.2h-2.4c-1.7,0-3,1.4-3,3.1s1.3,3.1,3,3.1c0.9,0,1.8-0.4,2.4-1.2c0.4-0.5,0.6-1.2,0.6-1.8v-2h-0.6V7.7h0.6
			V3.2H105L105,3.2z"/>
		<path class="st1" d="M108.8,11.4h-1.2v1.2h1.2V11.4z"/>
		<path class="st1" d="M114.8,15l-2.3,0v-1.6c-0.7,1.1-2.1,1.8-3.7,1.8c-0.3,0-0.6,0-0.9-0.1c-1-0.2-1.7-1.1-1.7-2.1v-0.4h1.3v0.7
			c0,0.2,0.1,0.5,0.3,0.6c0.3,0.2,0.7,0.3,1.2,0.3c1.8,0,3.2-1.2,3.3-2.7h-3.6v-1.2h2.2c0.8,0,1.2-0.3,1.4-0.6c0-0.1,0-0.1,0-0.2
			c0-0.1,0-0.2,0-0.3c-0.1-0.4-0.3-0.8-0.6-1c-0.4-0.3-1-0.5-1.6-0.5c-1.3,0-2.3,0.7-2.5,2h-1.3c0.3-1.9,1.7-3.1,3.8-3.1
			c1.8,0,3.1,0.9,3.4,2.5c0,0.2,0.1,0.3,0.1,0.5c0,0.1,0,0.2,0,0.4v4h1.2L114.8,15L114.8,15z"/>
	</g>
</g>
</svg>
