<svg width="189" height="93" viewBox="0 0 189 93" fill="none" xmlns="http://www.w3.org/2000/svg">
<g clip-path="url(#clip0_10_624)">
<path opacity="0.15" d="M140.006 6.96921C136.213 4.92231 131.81 3.91104 127.004 3.91104C119.93 3.91104 114.466 6.25036 110.222 10.1249C105.977 6.23817 100.513 3.91104 93.4389 3.91104C88.6334 3.91104 84.2304 4.92231 80.4372 6.96921C58.0075 11.6235 44.2984 27.9865 44.2984 51.0873C44.2984 85.0439 71.4482 91.1846 73.0338 91.611C90.6215 96.2897 93.5852 87.8218 94.0731 86.908C95.7197 87.7731 103.086 91.6232 110.234 91.7207C117.381 91.6354 124.748 87.7731 126.394 86.908C126.882 87.8218 129.846 96.2897 147.434 91.611C149.019 91.1846 176.169 85.0439 176.169 51.0873C176.169 27.9865 162.46 11.6235 140.03 6.96921H140.006ZM83.1327 89.0158C62.5081 88.2848 48.4941 72.9818 48.4941 51.0873C48.4941 33.0794 57.3977 19.7867 72.8265 13.5851C68.6918 19.1166 66.289 27.0483 66.289 37.4656C66.289 57.6178 75.7171 75.3942 90.5361 84.8733C90.5361 88.2726 85.1573 89.1011 83.1449 89.028L83.1327 89.0158ZM91.9997 81.1816C79.059 72.3117 70.4847 56.5944 70.4847 37.4534C70.4847 8.82117 89.353 8.10232 93.4267 8.10232C98.964 8.10232 103.574 9.73496 107.38 13.1587C98.3542 24.3435 96.1222 43.5941 95.0001 59.0555C94.439 67.7427 91.9997 81.1816 91.9997 81.1816ZM110.209 88.3092C107.575 88.3092 101.489 86.7131 95.5489 83.3991C97.5004 77.6726 98.4029 69.4606 99.0006 59.2749C100.489 38.2332 104.038 24.1973 110.197 16.2412C116.369 24.1973 119.918 38.221 121.394 59.2749C121.991 69.4606 122.894 77.6726 124.845 83.3991C118.906 86.7131 112.819 88.3092 110.185 88.3092H110.209ZM125.419 59.0555C124.297 43.5941 122.065 24.3313 113.039 13.1587C116.844 9.73496 121.467 8.10232 126.992 8.10232C131.053 8.10232 149.934 8.82117 149.934 37.4534C149.934 56.6066 141.36 72.3117 128.419 81.1816C128.419 81.1816 125.98 67.7427 125.419 59.0555ZM137.298 89.0158C133.908 89.1377 129.907 87.6634 129.907 84.8611C144.726 75.382 154.154 57.6178 154.154 37.4534C154.154 27.0483 151.751 19.1044 147.617 13.5729C163.045 19.7745 171.949 33.0672 171.949 51.0751C171.949 72.9696 157.923 88.2604 137.31 89.0037L137.298 89.0158Z" fill="#A6F750"/>
<path d="M116.283 89.5398V92.9878H109.38C109.148 92.9878 108.904 93 108.673 93C102.928 93 99.6226 90.088 99.6226 85.6044C99.6226 79.9388 105.367 77.502 113.661 77.0147C117.893 76.7344 120.003 76.0887 120.003 74.322C120.003 70.9227 116.857 68.3763 112.685 68.3763C112.527 68.3763 108.66 68.4006 108.66 68.4006V64.8795H112.795C118.357 64.8795 122.321 67.6209 123.674 72.1167C124.016 73.2986 124.187 74.5048 124.187 75.7354V88.5894H127.931V92.4274L120.564 92.4883V89.5763H116.295V85.3363H120.223V78.8301C119.454 79.5367 116.978 80.1338 113.722 80.3409C106.782 80.8282 103.916 82.3878 103.916 85.4216C103.916 88.1142 105.977 89.5763 109.392 89.5763H116.308L116.283 89.5398Z" fill="#A6F750"/>
<path d="M108.636 68.4006H105.099V71.9218H108.636V68.4006Z" fill="#A6F750"/>
<path d="M105.099 71.9218H101.562V75.4429H105.099V71.9218Z" fill="#A6F750"/>
<path d="M157.423 54.2063V92.3908H153.422V87.2248C151.263 90.7216 147.531 92.9147 142.945 92.9147C135.286 92.9147 129.505 86.8837 129.505 78.9275C129.505 70.9714 135.274 64.9404 142.945 64.9404C143.36 64.9404 151.239 65.0013 151.239 65.0013V68.8758H143.458C138.042 68.9245 133.883 73.262 133.883 78.9275C133.883 84.5931 138.091 88.9793 143.543 88.9793C146.58 89.0037 149.458 87.566 151.239 85.1048C152.446 83.4234 153.081 81.4131 153.056 79.3418V72.7259H151.239V68.8514H153.154V54.1698H157.411L157.423 54.2063Z" fill="#A6F750"/>
<path d="M169.595 80.743H165.692V84.6296H169.595V80.743Z" fill="#A6F750"/>
<path d="M189 92.403L181.633 92.4639V87.2857C179.523 90.746 174.913 93.0122 169.766 93.0122C168.79 93.0122 167.827 92.9269 166.875 92.7319C163.68 92.0131 161.411 89.1742 161.435 85.9089V84.6418H165.704V86.8105C165.704 87.566 166.095 88.2726 166.729 88.6747C167.656 89.2473 168.924 89.5519 170.473 89.5519C176.157 89.5519 180.779 85.6043 181.267 80.7551H169.607V76.8685H176.608C179.279 76.8685 180.633 76.0278 181.011 74.919C181.072 74.7241 181.109 74.5291 181.109 74.322C181.109 73.993 181.084 73.6641 181.011 73.3351C180.767 72.0558 180.072 70.9227 179.048 70.1064C177.742 69.022 175.889 68.3762 173.791 68.3762C169.449 68.3762 166.485 70.7521 165.717 74.7484H161.655C162.582 68.6565 167.241 64.8673 173.901 64.8673C179.755 64.8673 183.829 67.9011 184.963 72.8112C185.085 73.3595 185.17 73.9199 185.231 74.4804C185.268 74.8825 185.292 75.2967 185.292 75.7232V88.5772H189.012V92.403H189Z" fill="#A6F750"/>
<g opacity="0.15">
<path d="M187.719 86.2623H187.793V86.6522H188.341V86.2623H188.415V87.1273H188.341V86.7253H187.793V87.1273H187.719V86.2623Z" fill="#A6F750"/>
<path d="M188.061 87.6147C187.549 87.6147 187.134 87.2004 187.134 86.6887C187.134 86.177 187.549 85.7627 188.061 85.7627C188.573 85.7627 188.988 86.177 188.988 86.6887C188.988 87.2004 188.573 87.6147 188.061 87.6147ZM188.061 85.8358C187.597 85.8358 187.207 86.2135 187.207 86.6765C187.207 87.1395 187.585 87.5172 188.049 87.5172C188.512 87.5172 188.89 87.1395 188.89 86.6765C188.89 86.2135 188.512 85.8358 188.049 85.8358H188.061Z" fill="#A6F750"/>
</g>
<path d="M103.208 0H10.7331C4.8055 0 0 4.80047 0 10.7219V15.0106C0 20.932 4.8055 25.7325 10.7331 25.7325H90.5971L101.562 35.0532L103.208 25.7325C109.136 25.7325 113.942 20.932 113.942 15.0106V10.7219C113.942 4.80047 109.136 0 103.208 0V0Z" fill="#A6F750"/>
<path d="M19.0635 18.4465C18.0633 18.4465 17.1852 18.215 16.4534 17.7398C15.7216 17.2647 15.1483 16.6189 14.7458 15.7904C14.3433 14.9619 14.136 13.9994 14.136 12.9028C14.136 11.8062 14.3311 10.8803 14.7336 10.0761C15.1361 9.28417 15.6972 8.66279 16.4412 8.23636C17.1852 7.79773 18.0511 7.59061 19.0635 7.59061C19.8806 7.59061 20.6124 7.749 21.2589 8.07796C21.9053 8.40693 22.4176 8.84555 22.8079 9.4182C23.1981 9.99084 23.4421 10.6366 23.5153 11.3554H20.9052C20.8442 11.0021 20.7344 10.6975 20.5759 10.4416C20.4173 10.1858 20.1978 9.97866 19.9294 9.83245C19.6611 9.68624 19.344 9.61314 18.9781 9.61314C18.5512 9.61314 18.1853 9.7228 17.8682 9.92992C17.5511 10.137 17.3071 10.4904 17.1364 10.9777C16.9656 11.4651 16.8803 12.123 16.8803 12.9394C16.8803 14.1821 17.0754 15.0837 17.4535 15.6198C17.8316 16.1559 18.3439 16.4361 18.9903 16.4361C19.3562 16.4361 19.6733 16.3509 19.9416 16.1681C20.21 15.9975 20.4173 15.7538 20.5881 15.4614C20.7466 15.169 20.8564 14.8522 20.9174 14.4989H23.5275C23.4543 15.0228 23.3323 15.5224 23.1616 15.9975C22.9908 16.4727 22.7225 16.8991 22.3932 17.2647C22.0517 17.6302 21.6248 17.9226 21.0759 18.1297C20.5393 18.3368 19.8684 18.4465 19.0757 18.4465H19.0635Z" fill="#181C23"/>
<path d="M31.5285 18.4465C30.504 18.4465 29.6136 18.2272 28.8696 17.7886C28.1256 17.3499 27.5402 16.7164 27.1255 15.9122C26.7108 15.1081 26.5156 14.1456 26.5156 13.0368C26.5156 11.9281 26.723 10.9534 27.1377 10.137C27.5524 9.32072 28.1378 8.68715 28.894 8.24853C29.6502 7.79773 30.5284 7.57841 31.5285 7.57841C32.5286 7.57841 33.4068 7.79773 34.1508 8.24853C34.8948 8.69934 35.468 9.32072 35.8827 10.137C36.2974 10.9534 36.5047 11.9159 36.5047 13.0368C36.5047 14.1577 36.2974 15.0959 35.8949 15.9122C35.4924 16.7286 34.9192 17.3499 34.163 17.7886C33.419 18.2272 32.5408 18.4465 31.5163 18.4465H31.5285ZM31.5285 16.424C31.9798 16.424 32.3823 16.3143 32.7238 16.095C33.0653 15.8757 33.3336 15.5102 33.5166 15.0228C33.6995 14.5354 33.7971 13.8775 33.7971 13.0734C33.7971 12.2692 33.6995 11.5747 33.5166 11.063C33.3214 10.5513 33.0653 10.1858 32.7238 9.95428C32.3823 9.72279 31.992 9.60095 31.5407 9.60095C31.0894 9.60095 30.6869 9.72279 30.3454 9.95428C30.0039 10.1858 29.7356 10.5635 29.5404 11.0752C29.3453 11.5869 29.2477 12.257 29.2477 13.0856C29.2477 13.9141 29.3453 14.5476 29.5404 15.035C29.7356 15.5223 30.0039 15.8879 30.3454 16.1072C30.6869 16.3265 31.0894 16.4361 31.5407 16.4361L31.5285 16.424Z" fill="#181C23"/>
<path d="M39.932 18.3003V7.7368H42.4323L46.9085 14.1821V7.7368H49.3966V18.3003H47.1525L42.4323 11.5138V18.3003H39.932Z" fill="#181C23"/>
<path d="M53.2508 18.3003V7.7368H55.7511L60.2273 14.1821V7.7368H62.7154V18.3003H60.4713L55.7511 11.5138V18.3003H53.2508Z" fill="#181C23"/>
<path d="M66.5696 18.3003V7.7368H74.1194V9.80807H69.0821V11.9646H73.3632V13.9993H69.0699V16.2046H74.1681V18.3003H66.5818H66.5696Z" fill="#181C23"/>
<path d="M82.0838 18.4465C81.0837 18.4465 80.2055 18.215 79.4737 17.7398C78.7419 17.2647 78.1687 16.6189 77.7662 15.7904C77.3637 14.9619 77.1563 13.9994 77.1563 12.9028C77.1563 11.8062 77.3515 10.8803 77.754 10.0761C78.1565 9.28417 78.7175 8.66279 79.4615 8.23636C80.2055 7.79773 81.0715 7.59061 82.0838 7.59061C82.901 7.59061 83.6328 7.749 84.2792 8.07796C84.9256 8.40693 85.4379 8.84555 85.8282 9.4182C86.2185 9.99084 86.4624 10.6366 86.5356 11.3554H83.9255C83.8645 11.0021 83.7547 10.6975 83.5962 10.4416C83.4376 10.1858 83.2181 9.97866 82.9498 9.83245C82.6814 9.68624 82.3643 9.61314 81.9984 9.61314C81.5715 9.61314 81.2056 9.7228 80.8885 9.92992C80.5714 10.137 80.3275 10.4904 80.1567 10.9777C79.986 11.4651 79.9006 12.123 79.9006 12.9394C79.9006 14.1821 80.0957 15.0837 80.4738 15.6198C80.8519 16.1559 81.3642 16.4361 82.0106 16.4361C82.3765 16.4361 82.6936 16.3509 82.962 16.1681C83.2303 15.9975 83.4376 15.7538 83.6084 15.4614C83.7669 15.169 83.8767 14.8522 83.9377 14.4989H86.5478C86.4746 15.0228 86.3526 15.5224 86.1819 15.9975C86.0111 16.4727 85.7428 16.8991 85.4135 17.2647C85.072 17.6302 84.6451 17.9226 84.0962 18.1297C83.5596 18.3368 82.8888 18.4465 82.096 18.4465H82.0838Z" fill="#181C23"/>
<path d="M92.1095 18.3003V9.92992H89.0115V7.72462H97.6834V9.92992H94.6098V18.3003H92.1095Z" fill="#181C23"/>
</g>
<defs>
<clipPath id="clip0_10_624">
<rect width="189" height="93" fill="white"/>
</clipPath>
</defs>
</svg>
