<?xml version="1.0" encoding="utf-8"?>
<!-- Generator: Adobe Illustrator 27.0.0, SVG Export Plug-In . SVG Version: 6.00 Build 0)  -->
<svg version="1.1" id="Layer_1" xmlns="http://www.w3.org/2000/svg" xmlns:xlink="http://www.w3.org/1999/xlink" x="0px" y="0px"
	 viewBox="0 0 342.2 68.7" style="enable-background:new 0 0 342.2 68.7;" xml:space="preserve">
<g>
	<path d="M342.2,38.8c-1.7,6.3-4,12.3-8.3,17.5c-13.3,15.9-38.5,15.9-51.6-0.2c-17.1-20.9-5.7-51.2,21-55.7
		c17.2-2.9,34.6,9.4,38.3,26.9c0.1,0.7,0.5,1.4,0.7,2.2C342.2,32.6,342.2,35.7,342.2,38.8z" fill="#A6F750"/>
	<path d="M171.8,68.1c-18.8,0-33.9-15.3-33.9-34.1c0-18.8,15.3-33.9,34.1-33.9c18.8,0,33.9,15.3,33.9,34.1
		C205.9,52.9,190.6,68.1,171.8,68.1z" fill="#A6F750"/>
	<path d="M69.6,34.1c0.1,18.7-15.2,34-33.9,34.1C17,68.2,1.6,52.8,1.6,34.2c0-18.7,15.3-34,34-34.1C54.3,0.1,69.6,15.3,69.6,34.1z"
	fill="#A6F750"
		/>
</g>
</svg>
