<?xml version="1.0" encoding="utf-8"?>
<!-- Generator: Adobe Illustrator 27.0.0, SVG Export Plug-In . SVG Version: 6.00 Build 0)  -->
<svg version="1.1" id="Layer_1" xmlns="http://www.w3.org/2000/svg" xmlns:xlink="http://www.w3.org/1999/xlink" x="0px" y="0px"
	 viewBox="0 0 229.43 256.45" style="enable-background:new 0 0 229.43 256.45;" xml:space="preserve" fill-opacity="60%" >
<g>
	<path d="M119.73,0c6.45,1.57,13.24,2.33,19.31,4.84c23.01,9.5,37.03,26.69,41.32,51.32c4.76,27.35-8.67,55.23-33.44,68.52
		c-24.12,12.94-48.13,11.62-70.62-4.03c-18.06-12.57-27.57-30.52-27.98-52.5c-0.46-24.43,10.1-43.61,30.31-57.32
		c8.92-6.05,18.92-9.37,29.66-10.46c0.49-0.05,0.96-0.24,1.44-0.36C113.05,0,116.39,0,119.73,0z"/>
	<path d="M114.1,256.45c-28.83-0.24-55.26-8.74-78.6-26.14c-13.76-10.26-25.28-22.75-34.22-37.5c-1.35-2.23-1.77-4.45-0.62-6.88
		c11.61-24.29,30.38-39.86,56.55-46.4c2.02-0.5,4.09-0.79,6.13-1.22c4.04-0.86,7.49,0.36,10.79,2.68
		c13.15,9.25,27.83,13.4,43.85,12.73c12.33-0.52,24.19-3.5,34.11-10.8c7.4-5.44,14.5-5.09,22.41-2.89
		c22.31,6.21,39.13,19.52,51.01,39.26c5.15,8.56,5.35,8.73-0.16,17.01c-13.34,20.07-30.65,35.77-52.32,46.49
		C154.56,251.94,134.95,256.32,114.1,256.45z"/>
</g>
</svg>
